# xmcd
#
# Track frame offsets:
#	150
#	23213
#	39938
#	58201
#	76426
#	98851
#	121401
#	145514
#	167389
#	183784
#
# Disc length: 2736 seconds
#
# Revision: 0
# Processed by: cddbd v1.5.2PL0 Copyright (c) Steve Scherf et al.
# Submitted via: EZCDAudioConverter 2.1.5.1
#
DISCID=750aae0a
DTITLE=Paul Gurvitz - Sweetheart Land
DYEAR=1900
DGENRE=
TTITLE0=Somebody Help Me
TTITLE1=Country Girl
TTITLE2=Sweetheart Land
TTITLE3=Sex @ The Wheel
TTITLE4=What Happened To The Sunshine
TTITLE5=What Can I Do 4 U
TTITLE6=Gotta Feelin' Comin' On
TTITLE7=Bad 4 Each Other
TTITLE8=Who Found Who
TTITLE9=Just 4 The Thrill
EXTD=
EXTT0=
EXTT1=
EXTT2=
EXTT3=
EXTT4=
EXTT5=
EXTT6=
EXTT7=
EXTT8=
EXTT9=
PLAYORDER=
